<?xml version="1.0" encoding="UTF-8"?>
<!DOCTYPE svg PUBLIC "-//W3C//DTD SVG 1.1//EN" "http://www.w3.org/Graphics/SVG/1.1/DTD/svg11.dtd">
<svg xmlns="http://www.w3.org/2000/svg" xml:space="preserve" width="379px" height="112px" version="1.1" style="shape-rendering:geometricPrecision; text-rendering:geometricPrecision; image-rendering:optimizeQuality; fill-rule:evenodd; clip-rule:evenodd"
viewBox="0 0 3.82 1.13" xmlns:xlink="http://www.w3.org/1999/xlink">
 <defs>
  <style type="text/css">
   <![CDATA[
    .fil1 {fill:#DEDCDF}
    .fil0 {fill:#E5CB54}
    .fil2 {fill:#DEDCDF;fill-rule:nonzero}
   ]]>
  </style>
 </defs>
 <g id="Layer1">
  <metadata id="My-Layer"/>
  <g id="_2286783725392">
   <path class="fil0" d="M0.89 0.25c0.17,0 0.32,0.14 0.32,0.32 0,0.17 -0.15,0.32 -0.32,0.32 -0.18,0 -0.32,-0.15 -0.32,-0.32 0,-0.18 0.14,-0.32 0.32,-0.32z"/>
   <path class="fil0" d="M0.89 0.01c0.31,0 0.56,0.25 0.56,0.56 0,0.05 -0.01,0.11 -0.03,0.16l-0.09 -0.06c0.01,-0.03 0.01,-0.07 0.01,-0.1 0,-0.25 -0.2,-0.46 -0.45,-0.46 -0.09,0 -0.18,0.03 -0.25,0.08l-0.09 -0.07c0.09,-0.07 0.21,-0.11 0.34,-0.11zm0.12 1.1c-0.04,0.01 -0.08,0.02 -0.12,0.02 -0.31,0 -0.56,-0.25 -0.56,-0.56 0,-0.14 0.04,-0.26 0.12,-0.35l0.06 0.09c-0.05,0.08 -0.08,0.16 -0.08,0.26 0,0.25 0.21,0.45 0.46,0.45 0.02,0 0.04,0 0.06,0l0.06 0.09z"/>
   <path class="fil1" d="M1.6 0.79c-0.01,0.06 -0.06,0.34 0.03,0.34 0.11,0 0.03,-0.26 0.04,-0.36 0,-0.06 0.08,-0.1 0.08,-0.17 0,-0.06 0,-0.58 -0.1,-0.6 -0.1,-0.02 -0.05,0.62 -0.05,0.79z"/>
   <path class="fil1" d="M0.08 0.43c0,0 -0.03,0.5 -0.03,0.57 -0.01,0.08 0.01,0.13 0.05,0.13 0.04,0 0.08,-0.03 0.07,-0.13 -0.02,-0.09 -0.05,-0.56 -0.03,-0.57 0.01,0 0.08,-0.02 0.08,-0.07 0,-0.06 -0.01,-0.35 -0.01,-0.35 0,0 0,-0.01 -0.01,-0.01 -0.02,0 -0.02,0 -0.02,0.01 0,0.01 0,0.31 0,0.31 0,0 0,0.01 -0.01,0.01 -0.01,0 -0.01,-0.01 -0.01,-0.01l0 -0.31c0,0 0,-0.01 -0.02,-0.01 -0.02,0 -0.02,0.01 -0.02,0.01l0 0.31c0,0 0,0.01 -0.01,0.01 -0.01,0 -0.01,-0.01 -0.01,-0.01l0 -0.31c0,0 0,-0.01 -0.02,-0.01 -0.01,0 -0.01,0.01 -0.01,0.01l0 0.31c0,0 -0.01,0.01 -0.01,0.01 -0.01,0 -0.02,-0.01 -0.02,-0.01l0 -0.31c0,0 0,-0.01 -0.01,-0.01 -0.02,0 -0.02,0.01 -0.02,0.01l-0.01 0.34c0,0 0.01,0.05 0.08,0.08z"/>
   <path class="fil2" d="M2.1 0.92c-0.04,0.09 -0.06,0.1 -0.1,0.1l-0.02 0 0 0.11 0.02 0c0.11,0 0.14,-0.05 0.2,-0.18l0.14 -0.31c0,-0.02 0.01,-0.03 0.03,-0.03 0.02,0 0.03,0.02 0.03,0.04l0 0.48 0.11 0 0 -0.49c0,-0.08 -0.05,-0.13 -0.14,-0.13 -0.08,0 -0.1,0.04 -0.13,0.11l-0.14 0.3zm0.49 -0.4l0.26 0.44 -0.01 0.02c-0.03,0.04 -0.05,0.04 -0.09,0.04l-0.1 0 0 0.11 0.08 0c0.12,0 0.16,-0.03 0.21,-0.12l0.29 -0.49 -0.12 0 -0.2 0.34 -0.2 -0.34 -0.12 0zm0.72 0l0 0.22c0,0.14 0.07,0.21 0.21,0.21l0.19 0 0 0.18 0.11 0 0 -0.61 -0.11 0 0 0.32 -0.18 0c-0.08,0 -0.11,-0.04 -0.11,-0.1l0 -0.22 -0.11 0z"/>
   <path class="fil2" d="M2.08 0.03c-0.07,0 -0.1,0.04 -0.1,0.11 0,0.07 0.03,0.11 0.1,0.11l0.08 0 0 -0.04 -0.08 0c-0.05,0 -0.06,-0.02 -0.06,-0.07 0,-0.05 0.01,-0.07 0.06,-0.07l0.08 0 0 -0.04 -0.08 0zm0.11 0l0 0.04 0.06 0 0 0.18 0.04 0 0 -0.18 0.07 0 0 -0.04 -0.17 0zm0.29 0c-0.06,0 -0.1,0.04 -0.1,0.11 0,0.08 0.03,0.11 0.1,0.11l0.03 0c0.06,0 0.1,-0.03 0.1,-0.11 0,-0.07 -0.04,-0.11 -0.1,-0.11l-0.03 0zm0.03 0.04c0.04,0 0.06,0.02 0.06,0.07 0,0.05 -0.02,0.07 -0.06,0.07l-0.03 0c-0.04,0 -0.06,-0.02 -0.06,-0.07 0,-0.05 0.02,-0.07 0.06,-0.07l0.03 0zm0.16 0.1c-0.01,0.04 -0.02,0.04 -0.03,0.04l-0.01 0 0 0.04 0 0c0.04,0 0.05,-0.02 0.08,-0.06l0.05 -0.12c0,0 0,-0.01 0.01,-0.01 0.01,0 0.01,0.01 0.01,0.02l0 0.17 0.04 0 0 -0.18c0,-0.02 -0.02,-0.04 -0.05,-0.04 -0.03,0 -0.04,0.01 -0.05,0.04l-0.05 0.1zm0.29 -0.14c-0.06,0 -0.1,0.04 -0.1,0.11 0,0.08 0.04,0.11 0.1,0.11l0.03 0c0.07,0 0.1,-0.03 0.1,-0.11 0,-0.07 -0.03,-0.11 -0.1,-0.11l-0.03 0zm0.03 0.04c0.05,0 0.06,0.02 0.06,0.07 0,0.05 -0.01,0.07 -0.06,0.07l-0.03 0c-0.04,0 -0.06,-0.02 -0.06,-0.07 0,-0.05 0.02,-0.07 0.06,-0.07l0.03 0zm0.17 -0.04c-0.02,0 -0.02,0.01 -0.02,0.02l0 0.18c0,0.02 0,0.02 0.02,0.02l0.09 0c0.06,0 0.08,-0.02 0.08,-0.06 0,-0.03 -0.01,-0.04 -0.03,-0.05 0.02,-0.01 0.03,-0.02 0.03,-0.05 0,-0.03 -0.02,-0.06 -0.08,-0.06l-0.09 0zm0.02 0.13l0.08 0c0.02,0 0.03,0.01 0.03,0.02 0,0.02 -0.01,0.03 -0.03,0.03l-0.08 0c0,0 0,0 0,0l0 -0.05zm0 -0.09c0,0 0,0 0,0l0.07 0c0.03,0 0.04,0.01 0.04,0.03 0,0.02 -0.01,0.02 -0.04,0.02l-0.07 0 0 -0.05zm0.37 0.18l0.04 0 -0.08 -0.19c0,-0.03 -0.02,-0.03 -0.04,-0.03 -0.02,0 -0.04,0 -0.05,0.03l-0.08 0.19 0.05 0 0.02 -0.04 0.12 0 0.02 0.04zm-0.09 -0.18c0,0 0,0 0.01,0 0,0 0.01,0 0.01,0l0.03 0.1 -0.09 0 0.04 -0.1zm0.22 -0.04c-0.05,0 -0.07,0.03 -0.07,0.07 0,0.02 0.01,0.05 0.05,0.06l-0.05 0.09 0.04 0 0.05 -0.08 0.06 0c0,0 0,0 0,0l0 0.08 0.04 0 0 -0.09c0,-0.02 -0.01,-0.03 -0.03,-0.03l-0.09 0c-0.02,0 -0.03,-0.02 -0.03,-0.03 0,-0.02 0.01,-0.03 0.03,-0.03l0.12 0 0 -0.04 -0.12 0z"/>
  </g>
 </g>
</svg>
