<?xml version="1.0" encoding="UTF-8"?>
<!DOCTYPE svg PUBLIC "-//W3C//DTD SVG 1.1//EN" "http://www.w3.org/Graphics/SVG/1.1/DTD/svg11.dtd">
<svg xmlns="http://www.w3.org/2000/svg" xml:space="preserve" width="724px" height="209px" version="1.1" style="shape-rendering:geometricPrecision; text-rendering:geometricPrecision; image-rendering:optimizeQuality; fill-rule:evenodd; clip-rule:evenodd"
viewBox="0 0 17.5 5.05" xmlns:xlink="http://www.w3.org/1999/xlink">
 <defs>
  <style type="text/css">
   <![CDATA[
    .str0 {stroke:#676266;stroke-width:0.06;stroke-miterlimit:22.9256}
    .fil0 {fill:#1B1B1D}
    .fil1 {fill:#676266}
   ]]>
  </style>
 </defs>
 <g id="Layer1">
  <metadata id="My-Layer"/>
  <rect class="fil0" width="17.5" height="5.05"/>
  <path class="fil1" d="M17.06 3.43c0.01,0.14 0.14,0.81 -0.08,0.81 -0.28,0 -0.09,-0.61 -0.1,-0.85 -0.01,-0.15 -0.18,-0.25 -0.18,-0.41 -0.01,-0.16 0,-1.4 0.22,-1.44 0.24,-0.05 0.13,1.49 0.14,1.89z"/>
  <path class="fil1" d="M1.35 2.34c0,0 -0.04,0.91 -0.05,1.03 -0.02,0.13 0.02,0.23 0.1,0.23 0.08,0 0.15,-0.06 0.12,-0.23 -0.03,-0.17 -0.08,-1.02 -0.06,-1.03 0.03,-0.01 0.15,-0.04 0.15,-0.14 0,-0.1 -0.02,-0.63 -0.02,-0.63 0,0 0,-0.01 -0.02,-0.01 -0.02,0 -0.03,0 -0.03,0.02 0,0.02 0,0.55 0,0.55 0,0 0,0.01 -0.02,0.01 -0.01,0 -0.02,-0.01 -0.02,-0.01l0 -0.55c0,0 0,-0.03 -0.03,-0.03 -0.03,0 -0.03,0.03 -0.03,0.03l0 0.55c0,0 -0.01,0.02 -0.02,0.02 -0.02,0 -0.02,-0.02 -0.02,-0.02l0 -0.55c0,0 -0.01,-0.02 -0.04,-0.02 -0.02,0 -0.02,0.02 -0.02,0.02l0 0.55c0,0 -0.01,0.02 -0.02,0.02 -0.02,0 -0.03,-0.02 -0.03,-0.02l0 -0.55c0,0 0,-0.02 -0.02,-0.02 -0.03,0 -0.04,0.02 -0.04,0.02l-0.02 0.62c0,0 0.02,0.09 0.14,0.14zm-0.82 -1.41c-0.27,0.72 1,0.86 1.5,0.59 0.16,-0.09 0.26,-0.18 0.3,-0.33 0.05,-0.28 0.1,-0.14 -0.08,-0.24 -0.3,-0.16 -0.33,0.12 -0.7,0.15 -0.45,0.05 -0.56,-0.19 -0.78,-0.18 -0.15,0.01 -0.06,0.08 -0.24,0.01z"/>
  <path class="fil1" d="M15.14 2.6c-0.13,-0.03 -0.16,-0.08 -0.27,0.01 -0.1,0.08 -0.11,0.15 -0.06,0.26 -0.19,-0.06 -0.25,0.1 -0.19,0.23 -0.15,-0.03 -0.28,0.02 -0.16,0.18 -0.16,-0.02 -0.28,0.05 -0.18,0.21 -0.17,-0.05 -0.45,0.38 -0.42,0.48 0.07,0.27 0.46,-0.18 0.62,-0.33l0.52 -0.5c0.12,-0.11 0.28,-0.19 0.22,-0.46 0.16,-0.04 0.5,-0.33 0.84,-0.52 0.46,-0.25 -0.3,0.02 -0.3,0.02 0.07,-0.09 0.15,-0.14 0.24,-0.21 0.72,-0.59 -0.34,0.12 -0.35,0.12 0.04,-0.11 0.39,-0.87 -0.04,-0.19 -0.12,0.19 -0.44,0.62 -0.47,0.7z"/>
  <g id="_2282916151776">
   <path class="fil1" d="M2.89 1.88c0,0.14 0.2,0.11 0.32,0.11 0.21,0 1.22,0.01 1.28,-0.01 0.07,-0.03 0.12,-0.11 0.01,-0.18 -0.07,-0.04 -0.7,-0.01 -0.84,-0.01 -0.14,0 -0.29,0 -0.43,0 -0.12,0 -0.33,-0.04 -0.34,0.09z"/>
   <path class="fil1" d="M4.41 1.73c0.03,-0.28 -0.39,-0.47 -0.69,-0.46 -0.3,0 -0.69,0.16 -0.69,0.46l1.38 0z"/>
   <path class="fil1" d="M3.72 2.52c0.31,0 0.71,-0.17 0.69,-0.47l-1.38 0c-0.01,0.28 0.38,0.47 0.69,0.47z"/>
  </g>
  <path class="fil1" d="M13.76 0.49c0.12,0.07 0.33,0.36 0.45,0.46 0.27,0.25 0.41,0.44 0.65,0.67 0.07,0.06 0.15,0.11 0.12,0.22 -0.03,0.09 -0.14,0.15 -0.23,0.1l-1.11 -1.11c-0.04,-0.05 -0.14,-0.12 -0.12,-0.23 0.02,-0.09 0.13,-0.17 0.24,-0.11zm0.85 1.44c-0.21,0.15 -0.63,-0.3 -0.7,-0.37 -0.12,-0.13 -0.5,-0.47 -0.39,-0.74 0.13,0.07 0.43,0.42 0.55,0.54 0.04,0.05 0.08,0.09 0.13,0.14 0.08,0.09 0.34,0.3 0.41,0.43zm0.35 -0.33c-0.09,-0.03 -0.46,-0.45 -0.55,-0.55 -0.1,-0.1 -0.49,-0.46 -0.54,-0.56 0.21,-0.16 0.62,0.3 0.69,0.37 0.11,0.12 0.5,0.47 0.4,0.74z"/>
  <path class="fil1" d="M8.51 1.28c-0.02,0.15 0.08,0.45 0.16,0.56 0.17,0.24 0.27,0.24 0.56,0.24 0.24,0 0.26,0.02 0.46,-0.16 0.01,-0.01 0.01,-0.01 0.03,-0.01 0.06,-0.01 0.22,-0.06 0.28,-0.09 0.02,-0.02 0.05,-0.04 0.07,-0.06 0.03,-0.03 0.05,-0.06 0.07,-0.09 0.01,-0.02 0.02,-0.04 0.03,-0.06 0.04,-0.1 0.01,-0.14 0.01,-0.16 -0.08,-0.11 -0.15,-0.07 -0.26,-0.08l-0.01 -0.11 -1.4 0 0 0.02zm1.26 0.49c0,0 0.24,-0.02 0.29,-0.17 0.07,-0.18 -0.07,-0.1 -0.18,-0.11l-0.11 0.28zm-0.32 -1.19c-0.01,0.09 -0.09,0.15 -0.15,0.21 -0.06,0.05 -0.1,0.13 -0.09,0.21 0.01,0.05 0.02,0.08 0.06,0.12 0.02,0.02 0.04,0.04 0.07,0.03 0,-0.03 -0.02,-0.06 -0.02,-0.11 0.01,-0.17 0.22,-0.23 0.22,-0.39 0.01,-0.05 -0.02,-0.09 -0.05,-0.14 -0.01,-0.02 -0.03,0 -0.03,0 0,0.01 0,0.05 -0.01,0.07zm-0.29 0c-0.01,0.09 -0.09,0.15 -0.15,0.21 -0.06,0.05 -0.1,0.13 -0.09,0.21 0.01,0.05 0.02,0.08 0.06,0.12 0.02,0.02 0.04,0.04 0.07,0.03 0,-0.03 -0.02,-0.06 -0.02,-0.11 0.01,-0.17 0.22,-0.23 0.23,-0.39 0,-0.05 -0.03,-0.09 -0.06,-0.14 -0.01,-0.02 -0.03,0 -0.03,0 0,0.01 0,0.05 -0.01,0.07z"/>
  <path class="fil1" d="M4.89 3.71c0.08,0.44 -0.07,0.51 -0.4,0.63l-1 0c-0.22,-0.09 -0.41,-0.2 -0.36,-0.44 0.16,0.07 0.11,0.19 0.35,0.24 -0.16,-0.14 -0.25,-0.17 -0.38,-0.37 -0.26,-0.39 -0.7,-0.3 -0.59,-0.5 0.08,-0.16 0.36,0.19 0.59,0.22 0.33,0.04 0.39,-0.07 0.72,0.09 -0.06,-0.11 -0.14,-0.14 -0.31,-0.17 0.27,-0.39 1.26,-0.35 1.38,0.3zm-1.84 -0.63l0.13 0.1c0.11,0.09 0.31,0.06 0.46,0.06 -0.03,0.06 -0.07,0.07 -0.12,0.1 -0.03,0.02 -0.04,0.06 -0.07,0.08 -0.03,0.04 -0.02,0.06 -0.07,0.01 -0.17,-0.14 -0.09,-0.14 -0.41,-0.22 -0.11,-0.02 -0.12,-0.1 -0.1,-0.14 0.04,-0.06 0.15,-0.03 0.18,0.01z"/>
  <path class="fil1 str0" d="M9.48 3.08c0.25,0 0.45,0.2 0.45,0.45 0,0.25 -0.2,0.45 -0.45,0.45 -0.25,0 -0.45,-0.2 -0.45,-0.45 0,-0.25 0.2,-0.45 0.45,-0.45zm-0.66 -0.32c0.12,-0.06 0.39,-0.08 0.55,-0.09 0.05,0 0.1,0 0.12,0 0.01,-0.01 0.02,-0.01 0.03,-0.01 0.15,-0.03 0.48,-0.09 0.73,0.35l0.02 0.03 0 0c0.08,0.16 0.16,0.3 0.21,0.42 0.09,0.25 0.07,0.43 -0.2,0.54 -0.01,0 -0.01,0.01 -0.04,0.02 -0.11,0.1 -0.41,0.34 -0.69,0.43 -0.26,0.07 -0.5,0.03 -0.6,-0.32 -0.04,-0.13 -0.23,-0.25 -0.24,-0.25 -0.1,-0.06 -0.16,-0.13 -0.2,-0.21 -0.05,-0.11 -0.06,-0.22 -0.04,-0.34 0.02,-0.11 0.06,-0.22 0.12,-0.32 0.06,-0.12 0.15,-0.21 0.23,-0.25zm0.56 0.04c-0.16,0.01 -0.4,0.03 -0.51,0.08 -0.05,0.02 -0.12,0.1 -0.17,0.2 -0.05,0.08 -0.09,0.17 -0.1,0.27 -0.02,0.09 -0.01,0.18 0.03,0.26 0.03,0.06 0.07,0.11 0.14,0.15l0.01 0c0,0 0.24,0.15 0.29,0.34 0.08,0.25 0.26,0.28 0.44,0.22 0.26,-0.08 0.54,-0.31 0.65,-0.4 0.04,-0.02 0.06,-0.04 0.07,-0.05 0.18,-0.06 0.19,-0.19 0.13,-0.36 -0.05,-0.12 -0.12,-0.25 -0.21,-0.4l0 0 -0.02 -0.04c-0.19,-0.35 -0.46,-0.3 -0.58,-0.28 -0.02,0 -0.04,0 -0.04,0.01 -0.03,0 -0.07,0 -0.13,0z"/>
  <path class="fil1" d="M6.08 1.57c0.08,0.06 0.09,0.11 0.15,0.2 0.21,-0.03 0.51,-0.12 0.74,-0.17 0.13,-0.03 0.24,-0.05 0.38,-0.06 0.1,-0.02 0.32,-0.01 0.4,-0.03 -0.04,-0.19 -0.63,-0.07 -0.96,-0.04 -0.07,0 -0.04,-0.01 0.03,-0.03l0.7 -0.14c-0.02,-0.1 -0.02,-0.07 -0.11,-0.15 -0.04,-0.03 -0.63,0.17 -0.63,0.14 0,-0.04 0.42,-0.16 0.64,-0.29 0.11,-0.06 0.09,-0.15 -0.03,-0.13 -0.09,0 -0.36,0.13 -0.45,0.18 -0.2,0.09 -0.72,0.34 -0.86,0.52zm-0.73 0.38c-0.1,-0.02 -0.19,0 -0.27,0.02l-0.01 0.09c-0.04,0.2 0.04,0.17 0.11,0.23 0.04,0.04 0.03,0.05 0.08,0.11 0.09,-0.03 0.17,-0.13 0.24,-0.2 0.44,0.22 0.81,-0.06 0.62,-0.47 -0.07,-0.16 -0.27,-0.31 -0.47,-0.25 -0.25,0.08 -0.25,0.24 -0.3,0.47z"/>
  <path class="fil1" d="M11.67 2.17c0.03,-0.07 -0.03,-0.11 -0.06,-0.14l0.03 -0.03c0.05,0.02 0.08,0.1 0.12,0.07 0.03,-0.04 -0.06,-0.07 -0.07,-0.12 0.02,-0.02 0,-0.04 0.07,-0.01 0.07,0.03 0.19,0 0.26,-0.07 0.03,-0.04 0.05,-0.1 0.05,-0.16 0,-0.07 -0.02,-0.14 0.02,-0.17 0.02,0.03 0.08,0.1 0.13,0.09 0.01,-0.06 -0.06,-0.09 -0.1,-0.13l0.03 -0.04c0.1,0.07 0.11,0.12 0.26,-0.04 0.02,-0.02 0.09,-0.09 0.1,-0.11 0.03,-0.06 -0.02,-0.11 -0.06,-0.15 0.07,-0.07 0.19,-0.16 0.25,-0.23 0.04,-0.04 0.05,-0.08 0.02,-0.1 -0.03,-0.04 -0.08,0.03 -0.34,0.25 -0.1,-0.04 -0.08,-0.16 -0.27,0.05 -0.18,0.18 -0.09,0.16 -0.03,0.26 -0.02,0.02 -0.01,0.01 -0.03,0.03 -0.04,-0.02 -0.1,-0.12 -0.14,-0.07 -0.01,0.03 0.07,0.07 0.09,0.12 -0.06,0.07 -0.07,0 -0.16,0 -0.08,0 -0.17,0.03 -0.2,0.07 -0.03,0.04 -0.07,0.12 -0.06,0.19 0,0.06 0.05,0.12 0.03,0.14 -0.06,0 -0.1,-0.12 -0.13,-0.08 -0.03,0.03 0.06,0.1 0.09,0.12 -0.01,0.02 -0.02,0.03 -0.04,0.04 -0.1,-0.07 -0.1,-0.11 -0.25,0.04 -0.06,0.07 -0.18,0.16 -0.04,0.26l-0.03 0.05c-0.07,-0.01 -0.17,-0.06 -0.26,0.04 -0.09,0.09 -0.07,0.15 -0.03,0.27 -0.06,0.03 -0.22,0.22 -0.26,0.28l-0.07 0.12c0.22,-0.1 0.25,-0.19 0.4,-0.33 0.07,0.01 0.16,0.06 0.26,-0.05 0.1,-0.1 0.04,-0.21 0.03,-0.26l0.03 -0.03c0.04,0.02 0.05,0.06 0.12,0.06 0.08,0 0.19,-0.17 0.24,-0.23z"/>
  <path class="fil1" d="M12.78 3.19c0,0 0.25,-0.86 0.3,-0.99 0.04,-0.12 0.03,-0.22 -0.05,-0.24 -0.07,-0.02 -0.16,0.02 -0.17,0.19 -0.01,0.17 -0.16,1.01 -0.19,1.02 -0.03,0 -0.16,0.01 -0.18,0.1 -0.02,0.09 -0.13,0.61 -0.13,0.61 0,0 -0.01,0.02 0.02,0.02 0.02,0.01 0.03,0.01 0.03,-0.01 0.01,-0.02 0.14,-0.53 0.14,-0.53 0,0 0,-0.02 0.01,-0.02 0.02,0.01 0.02,0.02 0.02,0.02l-0.13 0.54c0,0 0,0.02 0.03,0.03 0.02,0.01 0.03,-0.02 0.03,-0.02l0.14 -0.53c0,0 0,-0.02 0.02,-0.02 0.01,0.01 0.01,0.02 0.01,0.02l-0.13 0.55c0,0 0,0.01 0.03,0.02 0.02,0.01 0.03,-0.01 0.03,-0.01l0.13 -0.54c0,0 0.01,-0.01 0.02,-0.01 0.02,0.01 0.02,0.02 0.02,0.02l-0.13 0.54c0,0 0,0.02 0.02,0.03 0.03,0 0.04,-0.02 0.04,-0.02l0.16 -0.59c0,0 0.01,-0.09 -0.09,-0.18z"/>
  <path class="fil1" d="M6.19 4.06c0.47,0.6 1.25,-0.4 1.28,-0.98 0.01,-0.17 -0.01,-0.31 -0.13,-0.42 -0.2,-0.19 -0.06,-0.16 -0.24,-0.06 -0.29,0.17 -0.07,0.34 -0.23,0.68 -0.2,0.4 -0.46,0.37 -0.57,0.57 -0.07,0.13 0.03,0.09 -0.11,0.21z"/>
 </g>
</svg>
